<svg xmlns="http://www.w3.org/2000/svg" width="16" height="16" fill="#202630" viewBox="0 0 14 16" class="bn-svg"><path fill="#202630" fill-rule="evenodd" clip-rule="evenodd" d="M10.4879 0C10.5996 0.96953 10.1968 1.92387 9.60713 2.62641C8.99235 3.31738 8.00749 3.84556 7.04923 3.77755C6.92385 2.84564 7.40944 1.85368 7.95278 1.24881C8.56756 0.561459 9.63448 0.035453 10.4879 0ZM13.5527 5.20694C13.4395 5.27152 11.6741 6.27909 11.6936 8.32883C11.7157 10.8105 13.9734 11.6303 14 11.639C13.9871 11.6969 13.6466 12.8227 12.8008 13.9658C12.0941 14.9723 11.3524 15.9563 10.1768 15.9736C9.61736 15.986 9.23962 15.8329 8.84599 15.6732C8.43549 15.5068 8.00771 15.3333 7.33854 15.3333C6.62905 15.3333 6.18224 15.5125 5.75142 15.6852C5.37887 15.8346 5.01827 15.9792 4.51011 15.999C3.38999 16.0388 2.53356 14.9245 1.80099 13.9275C0.337388 11.8915 -0.802493 8.18846 0.725707 5.66913C1.46663 4.43334 2.81701 3.63818 4.2601 3.61648C4.89566 3.60418 5.50537 3.83743 6.03985 4.0419C6.44862 4.19829 6.81339 4.33784 7.11208 4.33784C7.37475 4.33784 7.72947 4.20381 8.14285 4.04763C8.79383 3.80168 9.59027 3.50077 10.4018 3.58175C10.9565 3.59694 12.5372 3.79012 13.5554 5.20535L13.5527 5.20694Z"/></svg>